<svg width="12" height="16" viewBox="0 0 12 16" fill="none" xmlns="http://www.w3.org/2000/svg">
<path d="M6.00046 0C2.68493 0 0.000457764 2.68794 0.000457764 6C0.000457764 8.22241 0.750176 8.91691 4.72768 15.2945C5.31471 16.2357 6.68686 16.2346 7.27321 15.2945C11.2528 8.91356 12.0005 8.22197 12.0005 6C12.0005 2.68447 9.31252 0 6.00046 0ZM6.00046 14.5C2.01846 8.11519 1.50046 7.71212 1.50046 6C1.50046 3.51472 3.51518 1.5 6.00046 1.5C8.48574 1.5 10.5005 3.51472 10.5005 6C10.5005 7.70478 10.0265 8.04453 6.00046 14.5ZM3.50046 6C3.50046 4.61928 4.61974 3.5 6.00046 3.5C7.38118 3.5 8.50046 4.61928 8.50046 6C8.50046 7.38072 7.38118 8.5 6.00046 8.5C4.61974 8.5 3.50046 7.38072 3.50046 6Z" fill="black"/>
</svg>
