<svg width="16" height="12" viewBox="0 0 16 12" fill="none" xmlns="http://www.w3.org/2000/svg">
<path d="M14.5008 0H1.50076C0.672325 0 0.000762939 0.671562 0.000762939 1.5V10.5C0.000762939 11.3284 0.672325 12 1.50076 12H14.5008C15.3292 12 16.0008 11.3284 16.0008 10.5V1.5C16.0008 0.671562 15.3292 0 14.5008 0ZM14.5008 1.5V2.77516C13.8001 3.34575 12.683 4.233 10.2949 6.10297C9.76864 6.51694 8.72614 7.51147 8.00076 7.49988C7.27551 7.51159 6.23267 6.51678 5.70661 6.10297C3.31889 4.23328 2.20154 3.34584 1.50076 2.77516V1.5H14.5008ZM1.50076 10.5V4.69994C2.21683 5.27028 3.23229 6.07063 4.78008 7.28263C5.46311 7.82028 6.65926 9.00719 8.00076 8.99997C9.33567 9.00719 10.5167 7.8375 11.2212 7.28288C12.7689 6.07091 13.7847 5.27034 14.5008 4.69997V10.5H1.50076Z" fill="black"/>
</svg>
