<svg width="16" height="16" viewBox="0 0 16 16" fill="none" xmlns="http://www.w3.org/2000/svg">
<path d="M14.8905 0.715751L11.9468 0.0376264C11.2718 -0.118624 10.5843 0.231376 10.3124 0.868876L8.95303 4.04075C8.70303 4.622 8.87178 5.3095 9.36241 5.7095L10.6124 6.73138C9.71866 8.36888 8.36866 9.71888 6.73116 10.6095L5.70928 9.3595C5.30928 8.86888 4.62178 8.70013 4.04053 8.95013L0.865533 10.3095C0.228033 10.5814 -0.118842 11.2689 0.0342828 11.9439L0.712408 14.8876C0.862408 15.5408 1.43741 15.997 2.10616 15.997C9.75928 16.0001 15.9999 9.80325 15.9999 2.1095C15.9999 1.44075 15.5437 0.865751 14.8905 0.715751ZM2.16553 14.5001L1.51241 11.6658L4.58116 10.3501L6.32178 12.4783C9.40928 11.0283 11.028 9.41575 12.478 6.322L10.3499 4.58138L11.6655 1.51263L14.4999 2.16575C14.4687 8.96575 8.96553 14.4689 2.16553 14.5001Z" fill="black"/>
</svg>
